<mxfile host="app.diagrams.net" modified="2024-03-30T12:11:45.723Z" agent="Mozilla/5.0 (Macintosh; Intel Mac OS X 10_15_7) AppleWebKit/605.1.15 (KHTML, like Gecko) Version/15.6.1 Safari/605.1.15" etag="9dx51CDlxZAYy5xUNfKr" version="24.2.1" type="github">
  <diagram name="Page-1" id="QJoDa5Xf5KZHRKWnFKj4">
    <mxGraphModel dx="608" dy="429" grid="1" gridSize="10" guides="1" tooltips="1" connect="1" arrows="1" fold="1" page="1" pageScale="1" pageWidth="1169" pageHeight="827" math="0" shadow="0">
      <root>
        <mxCell id="0" />
        <mxCell id="1" parent="0" />
        <mxCell id="w5lrp8CAif_9VlZ4OXMN-14" value="" style="shape=corner;whiteSpace=wrap;html=1;direction=west;dx=140;dy=110;fillColor=#f9f7ed;strokeColor=#36393d;" parent="1" vertex="1">
          <mxGeometry x="30" y="160" width="280" height="220" as="geometry" />
        </mxCell>
        <mxCell id="fJoO8VDyXokNPLIYZir3-1" value="Muški Množina" style="rounded=0;whiteSpace=wrap;html=1;" parent="1" vertex="1">
          <mxGeometry x="180" y="60" width="120" height="21" as="geometry" />
        </mxCell>
        <mxCell id="BAi89jd5EGfL0doamKMS-102" value="" style="rounded=0;whiteSpace=wrap;html=1;fillColor=#f9f7ed;strokeColor=#36393d;" parent="1" vertex="1">
          <mxGeometry x="30" y="490" width="280" height="220" as="geometry" />
        </mxCell>
        <mxCell id="BAi89jd5EGfL0doamKMS-101" value="Muški" style="rounded=0;whiteSpace=wrap;html=1;" parent="1" vertex="1">
          <mxGeometry x="180" y="389" width="120" height="21" as="geometry" />
        </mxCell>
        <mxCell id="BAi89jd5EGfL0doamKMS-87" value="drug ➜ drugovi&lt;br&gt;čaj ➜ čajevi miš ➜ miševi" style="rounded=0;whiteSpace=wrap;html=1;align=left;fontSize=10;" parent="1" vertex="1">
          <mxGeometry x="320" y="90" width="120" height="30" as="geometry" />
        </mxCell>
        <mxCell id="z7CCXZcRLEo5i3R6FDuk-22" value="NOMINATIV" style="rounded=0;whiteSpace=wrap;html=1;strokeColor=#666666;fillColor=#f5f5f5;fontColor=#333333;" parent="1" vertex="1">
          <mxGeometry x="40" y="60" width="120" height="20" as="geometry" />
        </mxCell>
        <mxCell id="z7CCXZcRLEo5i3R6FDuk-23" value="M" style="rounded=0;whiteSpace=wrap;html=1;fillColor=#f5f5f5;fontColor=#333333;strokeColor=#666666;fontSize=9;verticalAlign=middle;horizontal=1;perimeterSpacing=0;spacingTop=1;" parent="1" vertex="1">
          <mxGeometry x="40" y="80" width="40" height="10" as="geometry" />
        </mxCell>
        <mxCell id="z7CCXZcRLEo5i3R6FDuk-24" value="S" style="rounded=0;whiteSpace=wrap;html=1;fillColor=#f5f5f5;fontColor=#333333;strokeColor=#666666;fontSize=9;verticalAlign=middle;horizontal=1;perimeterSpacing=0;spacingTop=1;" parent="1" vertex="1">
          <mxGeometry x="80" y="80" width="40" height="10" as="geometry" />
        </mxCell>
        <mxCell id="z7CCXZcRLEo5i3R6FDuk-25" value="Ž" style="rounded=0;whiteSpace=wrap;html=1;fillColor=#f5f5f5;fontColor=#333333;strokeColor=#666666;fontSize=9;verticalAlign=middle;horizontal=1;perimeterSpacing=0;spacingTop=1;" parent="1" vertex="1">
          <mxGeometry x="120" y="80" width="40" height="10" as="geometry" />
        </mxCell>
        <mxCell id="z7CCXZcRLEo5i3R6FDuk-28" value="-a" style="rounded=0;whiteSpace=wrap;html=1;strokeColor=#666666;" parent="1" vertex="1">
          <mxGeometry x="120" y="90" width="40" height="30" as="geometry" />
        </mxCell>
        <mxCell id="z7CCXZcRLEo5i3R6FDuk-27" value="-o -e" style="rounded=0;whiteSpace=wrap;html=1;fillColor=#fff2cc;strokeColor=#d6b656;" parent="1" vertex="1">
          <mxGeometry x="80" y="90" width="40" height="30" as="geometry" />
        </mxCell>
        <mxCell id="z7CCXZcRLEo5i3R6FDuk-29" value="-i" style="rounded=0;whiteSpace=wrap;html=1;fillColor=#fff2cc;strokeColor=#d6b656;" parent="1" vertex="1">
          <mxGeometry x="40" y="120" width="40" height="30" as="geometry" />
        </mxCell>
        <mxCell id="z7CCXZcRLEo5i3R6FDuk-26" value="" style="rounded=0;whiteSpace=wrap;html=1;fillColor=#fff2cc;strokeColor=#d6b656;" parent="1" vertex="1">
          <mxGeometry x="40" y="90" width="40" height="30" as="geometry" />
        </mxCell>
        <mxCell id="z7CCXZcRLEo5i3R6FDuk-30" value="-a" style="rounded=0;whiteSpace=wrap;html=1;fillColor=#fff2cc;strokeColor=#d6b656;" parent="1" vertex="1">
          <mxGeometry x="80" y="120" width="40" height="30" as="geometry" />
        </mxCell>
        <mxCell id="z7CCXZcRLEo5i3R6FDuk-31" value="-e" style="rounded=0;whiteSpace=wrap;html=1;fillColor=#fff2cc;strokeColor=#d6b656;" parent="1" vertex="1">
          <mxGeometry x="120" y="120" width="40" height="30" as="geometry" />
        </mxCell>
        <mxCell id="z7CCXZcRLEo5i3R6FDuk-43" value="AKUZATIV" style="rounded=0;whiteSpace=wrap;html=1;strokeColor=#666666;fillColor=#f5f5f5;fontColor=#333333;" parent="1" vertex="1">
          <mxGeometry x="40" y="170" width="120" height="20" as="geometry" />
        </mxCell>
        <mxCell id="z7CCXZcRLEo5i3R6FDuk-44" value="M" style="rounded=0;whiteSpace=wrap;html=1;fontSize=8;fillColor=#f5f5f5;fontColor=#333333;strokeColor=#666666;" parent="1" vertex="1">
          <mxGeometry x="40" y="190" width="40" height="10" as="geometry" />
        </mxCell>
        <mxCell id="z7CCXZcRLEo5i3R6FDuk-45" value="S" style="rounded=0;whiteSpace=wrap;html=1;fontSize=8;fillColor=#f5f5f5;fontColor=#333333;strokeColor=#666666;" parent="1" vertex="1">
          <mxGeometry x="80" y="190" width="40" height="10" as="geometry" />
        </mxCell>
        <mxCell id="z7CCXZcRLEo5i3R6FDuk-46" value="Ž" style="rounded=0;whiteSpace=wrap;html=1;fontSize=8;fillColor=#f5f5f5;fontColor=#333333;strokeColor=#666666;" parent="1" vertex="1">
          <mxGeometry x="120" y="190" width="40" height="10" as="geometry" />
        </mxCell>
        <mxCell id="BAi89jd5EGfL0doamKMS-6" style="edgeStyle=orthogonalEdgeStyle;rounded=0;orthogonalLoop=1;jettySize=auto;html=1;exitX=0;exitY=0.25;exitDx=0;exitDy=0;fillColor=#fff2cc;strokeColor=#d6b656;entryX=0;entryY=0.5;entryDx=0;entryDy=0;" parent="1" source="z7CCXZcRLEo5i3R6FDuk-47" target="z7CCXZcRLEo5i3R6FDuk-26" edge="1">
          <mxGeometry relative="1" as="geometry">
            <mxPoint x="10" y="90" as="targetPoint" />
            <Array as="points">
              <mxPoint x="40" y="210" />
              <mxPoint x="20" y="210" />
              <mxPoint x="20" y="105" />
            </Array>
          </mxGeometry>
        </mxCell>
        <mxCell id="z7CCXZcRLEo5i3R6FDuk-49" value="-u" style="rounded=0;whiteSpace=wrap;html=1;strokeColor=#666666;" parent="1" vertex="1">
          <mxGeometry x="120" y="200" width="40" height="30" as="geometry" />
        </mxCell>
        <mxCell id="z7CCXZcRLEo5i3R6FDuk-50" value="-e" style="rounded=0;whiteSpace=wrap;html=1;strokeColor=#666666;" parent="1" vertex="1">
          <mxGeometry x="40" y="230" width="40" height="30" as="geometry" />
        </mxCell>
        <mxCell id="z7CCXZcRLEo5i3R6FDuk-48" value="-o -e" style="rounded=0;whiteSpace=wrap;html=1;fillColor=#fff2cc;strokeColor=#d6b656;" parent="1" vertex="1">
          <mxGeometry x="80" y="200" width="40" height="30" as="geometry" />
        </mxCell>
        <mxCell id="z7CCXZcRLEo5i3R6FDuk-51" value="-a" style="rounded=0;whiteSpace=wrap;html=1;fillColor=#fff2cc;strokeColor=#d6b656;" parent="1" vertex="1">
          <mxGeometry x="80" y="230" width="40" height="30" as="geometry" />
        </mxCell>
        <mxCell id="z7CCXZcRLEo5i3R6FDuk-52" value="-e" style="rounded=0;whiteSpace=wrap;html=1;fillColor=#fff2cc;strokeColor=#d6b656;" parent="1" vertex="1">
          <mxGeometry x="120" y="230" width="40" height="30" as="geometry" />
        </mxCell>
        <mxCell id="z7CCXZcRLEo5i3R6FDuk-54" value="GENETIV" style="rounded=0;whiteSpace=wrap;html=1;strokeColor=#666666;fillColor=#f5f5f5;fontColor=#333333;" parent="1" vertex="1">
          <mxGeometry x="40" y="280" width="120" height="20" as="geometry" />
        </mxCell>
        <mxCell id="z7CCXZcRLEo5i3R6FDuk-55" value="M" style="rounded=0;whiteSpace=wrap;html=1;fontSize=8;fillColor=#f5f5f5;fontColor=#333333;strokeColor=#666666;" parent="1" vertex="1">
          <mxGeometry x="40" y="300" width="40" height="10" as="geometry" />
        </mxCell>
        <mxCell id="z7CCXZcRLEo5i3R6FDuk-56" value="S" style="rounded=0;whiteSpace=wrap;html=1;fontSize=8;fillColor=#f5f5f5;fontColor=#333333;strokeColor=#666666;" parent="1" vertex="1">
          <mxGeometry x="80" y="300" width="40" height="10" as="geometry" />
        </mxCell>
        <mxCell id="z7CCXZcRLEo5i3R6FDuk-57" value="Ž" style="rounded=0;whiteSpace=wrap;html=1;fontSize=8;fillColor=#f5f5f5;fontColor=#333333;strokeColor=#666666;" parent="1" vertex="1">
          <mxGeometry x="120" y="300" width="40" height="10" as="geometry" />
        </mxCell>
        <mxCell id="z7CCXZcRLEo5i3R6FDuk-60" value="-e" style="rounded=0;whiteSpace=wrap;html=1;strokeColor=#666666;" parent="1" vertex="1">
          <mxGeometry x="120" y="310" width="40" height="30" as="geometry" />
        </mxCell>
        <mxCell id="BAi89jd5EGfL0doamKMS-3" value="-og -eg&lt;br&gt;-a" style="rounded=0;whiteSpace=wrap;html=1;fillColor=#ffe6cc;strokeColor=#d79b00;" parent="1" vertex="1">
          <mxGeometry x="40" y="310" width="80" height="30" as="geometry" />
        </mxCell>
        <mxCell id="z7CCXZcRLEo5i3R6FDuk-47" value="non living" style="rounded=0;whiteSpace=wrap;html=1;fillColor=#fff2cc;strokeColor=#d6b656;fontSize=8;fontColor=#d6b656;" parent="1" vertex="1">
          <mxGeometry x="40" y="200" width="40" height="15" as="geometry" />
        </mxCell>
        <mxCell id="BAi89jd5EGfL0doamKMS-10" style="edgeStyle=orthogonalEdgeStyle;rounded=0;orthogonalLoop=1;jettySize=auto;html=1;exitX=0;exitY=0.5;exitDx=0;exitDy=0;entryX=0;entryY=0.5;entryDx=0;entryDy=0;fillColor=#ffe6cc;strokeColor=#d79b00;" parent="1" source="BAi89jd5EGfL0doamKMS-9" target="BAi89jd5EGfL0doamKMS-3" edge="1">
          <mxGeometry relative="1" as="geometry" />
        </mxCell>
        <mxCell id="BAi89jd5EGfL0doamKMS-9" value="living" style="rounded=0;whiteSpace=wrap;html=1;fillColor=#ffe6cc;strokeColor=#d79b00;fontSize=8;fontColor=#d79c00;" parent="1" vertex="1">
          <mxGeometry x="40" y="216" width="40" height="14" as="geometry" />
        </mxCell>
        <mxCell id="BAi89jd5EGfL0doamKMS-11" value="-ih&lt;br&gt;-a" style="rounded=0;whiteSpace=wrap;html=1;strokeColor=#666666;" parent="1" vertex="1">
          <mxGeometry x="40" y="340" width="120" height="30" as="geometry" />
        </mxCell>
        <mxCell id="BAi89jd5EGfL0doamKMS-12" value="DATIV" style="rounded=0;whiteSpace=wrap;html=1;fillColor=#f5f5f5;strokeColor=#666666;fontColor=#333333;" parent="1" vertex="1">
          <mxGeometry x="40" y="500" width="120" height="20" as="geometry" />
        </mxCell>
        <mxCell id="BAi89jd5EGfL0doamKMS-13" value="M" style="rounded=0;whiteSpace=wrap;html=1;fontSize=8;fillColor=#f5f5f5;fontColor=#333333;strokeColor=#666666;" parent="1" vertex="1">
          <mxGeometry x="40" y="520" width="40" height="10" as="geometry" />
        </mxCell>
        <mxCell id="BAi89jd5EGfL0doamKMS-14" value="S" style="rounded=0;whiteSpace=wrap;html=1;fontSize=8;fillColor=#f5f5f5;fontColor=#333333;strokeColor=#666666;" parent="1" vertex="1">
          <mxGeometry x="80" y="520" width="40" height="10" as="geometry" />
        </mxCell>
        <mxCell id="BAi89jd5EGfL0doamKMS-15" value="Ž" style="rounded=0;whiteSpace=wrap;html=1;fontSize=8;fillColor=#f5f5f5;fontColor=#333333;strokeColor=#666666;" parent="1" vertex="1">
          <mxGeometry x="120" y="520" width="40" height="10" as="geometry" />
        </mxCell>
        <mxCell id="BAi89jd5EGfL0doamKMS-16" value="-oj&lt;br&gt;-i" style="rounded=0;whiteSpace=wrap;html=1;fillColor=#dae8fc;strokeColor=#6c8ebf;" parent="1" vertex="1">
          <mxGeometry x="120" y="530" width="40" height="30" as="geometry" />
        </mxCell>
        <mxCell id="BAi89jd5EGfL0doamKMS-17" value="-om -em&lt;br&gt;-u" style="rounded=0;whiteSpace=wrap;html=1;fillColor=#dae8fc;strokeColor=#6c8ebf;" parent="1" vertex="1">
          <mxGeometry x="40" y="530" width="80" height="30" as="geometry" />
        </mxCell>
        <mxCell id="BAi89jd5EGfL0doamKMS-18" value="-im&lt;br&gt;-ima" style="rounded=0;whiteSpace=wrap;html=1;fillColor=#d5e8d4;strokeColor=#82b366;" parent="1" vertex="1">
          <mxGeometry x="40" y="560" width="80" height="30" as="geometry" />
        </mxCell>
        <mxCell id="BAi89jd5EGfL0doamKMS-19" value="-im&lt;br&gt;-ama" style="rounded=0;whiteSpace=wrap;html=1;fillColor=#d5e8d4;strokeColor=#82b366;" parent="1" vertex="1">
          <mxGeometry x="120" y="560" width="40" height="30" as="geometry" />
        </mxCell>
        <mxCell id="BAi89jd5EGfL0doamKMS-20" value="LOKATIV" style="rounded=0;whiteSpace=wrap;html=1;fillColor=#f5f5f5;strokeColor=#666666;fontColor=#333333;" parent="1" vertex="1">
          <mxGeometry x="40" y="610" width="120" height="20" as="geometry" />
        </mxCell>
        <mxCell id="BAi89jd5EGfL0doamKMS-21" value="M" style="rounded=0;whiteSpace=wrap;html=1;fontSize=8;fillColor=#f5f5f5;fontColor=#333333;strokeColor=#666666;" parent="1" vertex="1">
          <mxGeometry x="40" y="630" width="40" height="10" as="geometry" />
        </mxCell>
        <mxCell id="BAi89jd5EGfL0doamKMS-22" value="S" style="rounded=0;whiteSpace=wrap;html=1;fontSize=8;fillColor=#f5f5f5;fontColor=#333333;strokeColor=#666666;" parent="1" vertex="1">
          <mxGeometry x="80" y="630" width="40" height="10" as="geometry" />
        </mxCell>
        <mxCell id="BAi89jd5EGfL0doamKMS-23" value="Ž" style="rounded=0;whiteSpace=wrap;html=1;fontSize=8;fillColor=#f5f5f5;fontColor=#333333;strokeColor=#666666;" parent="1" vertex="1">
          <mxGeometry x="120" y="630" width="40" height="10" as="geometry" />
        </mxCell>
        <mxCell id="BAi89jd5EGfL0doamKMS-24" value="-oj&lt;br&gt;-i" style="rounded=0;whiteSpace=wrap;html=1;fillColor=#dae8fc;strokeColor=#6c8ebf;" parent="1" vertex="1">
          <mxGeometry x="120" y="640" width="40" height="30" as="geometry" />
        </mxCell>
        <mxCell id="BAi89jd5EGfL0doamKMS-25" value="-om -em&lt;br&gt;-u" style="rounded=0;whiteSpace=wrap;html=1;fillColor=#dae8fc;strokeColor=#6c8ebf;" parent="1" vertex="1">
          <mxGeometry x="40" y="640" width="80" height="30" as="geometry" />
        </mxCell>
        <mxCell id="BAi89jd5EGfL0doamKMS-26" value="-im&lt;br&gt;-ima" style="rounded=0;whiteSpace=wrap;html=1;fillColor=#d5e8d4;strokeColor=#82b366;" parent="1" vertex="1">
          <mxGeometry x="40" y="670" width="80" height="30" as="geometry" />
        </mxCell>
        <mxCell id="BAi89jd5EGfL0doamKMS-27" value="-im&lt;br&gt;-ama" style="rounded=0;whiteSpace=wrap;html=1;fillColor=#d5e8d4;strokeColor=#82b366;" parent="1" vertex="1">
          <mxGeometry x="120" y="670" width="40" height="30" as="geometry" />
        </mxCell>
        <mxCell id="BAi89jd5EGfL0doamKMS-37" value="INSTRUMENTAL" style="rounded=0;whiteSpace=wrap;html=1;fillColor=#f5f5f5;fontColor=#333333;strokeColor=#666666;" parent="1" vertex="1">
          <mxGeometry x="40" y="720" width="120" height="20" as="geometry" />
        </mxCell>
        <mxCell id="BAi89jd5EGfL0doamKMS-38" value="M" style="rounded=0;whiteSpace=wrap;html=1;fontSize=8;fillColor=#f5f5f5;fontColor=#333333;strokeColor=#666666;" parent="1" vertex="1">
          <mxGeometry x="40" y="740" width="40" height="10" as="geometry" />
        </mxCell>
        <mxCell id="BAi89jd5EGfL0doamKMS-39" value="S" style="rounded=0;whiteSpace=wrap;html=1;fontSize=8;fillColor=#f5f5f5;fontColor=#333333;strokeColor=#666666;" parent="1" vertex="1">
          <mxGeometry x="80" y="740" width="40" height="10" as="geometry" />
        </mxCell>
        <mxCell id="BAi89jd5EGfL0doamKMS-40" value="Ž" style="rounded=0;whiteSpace=wrap;html=1;fontSize=8;fillColor=#f5f5f5;fontColor=#333333;strokeColor=#666666;" parent="1" vertex="1">
          <mxGeometry x="120" y="740" width="40" height="10" as="geometry" />
        </mxCell>
        <mxCell id="BAi89jd5EGfL0doamKMS-41" value="-om" style="rounded=0;whiteSpace=wrap;html=1;" parent="1" vertex="1">
          <mxGeometry x="120" y="750" width="40" height="30" as="geometry" />
        </mxCell>
        <mxCell id="BAi89jd5EGfL0doamKMS-42" value="-im&lt;br&gt;-em" style="rounded=0;whiteSpace=wrap;html=1;" parent="1" vertex="1">
          <mxGeometry x="40" y="750" width="80" height="30" as="geometry" />
        </mxCell>
        <mxCell id="BAi89jd5EGfL0doamKMS-43" value="-im&lt;br&gt;-ima" style="rounded=0;whiteSpace=wrap;html=1;fillColor=#d5e8d4;strokeColor=#82b366;" parent="1" vertex="1">
          <mxGeometry x="40" y="780" width="80" height="30" as="geometry" />
        </mxCell>
        <mxCell id="BAi89jd5EGfL0doamKMS-44" value="-im&lt;br&gt;-ama" style="rounded=0;whiteSpace=wrap;html=1;fillColor=#d5e8d4;strokeColor=#82b366;" parent="1" vertex="1">
          <mxGeometry x="120" y="780" width="40" height="30" as="geometry" />
        </mxCell>
        <mxCell id="BAi89jd5EGfL0doamKMS-46" value="VOKATIV" style="rounded=0;whiteSpace=wrap;html=1;strokeColor=#666666;fillColor=#f5f5f5;fontColor=#333333;" parent="1" vertex="1">
          <mxGeometry x="40" y="389" width="120" height="20" as="geometry" />
        </mxCell>
        <mxCell id="BAi89jd5EGfL0doamKMS-47" value="M" style="rounded=0;whiteSpace=wrap;html=1;fontSize=8;fillColor=#f5f5f5;fontColor=#333333;strokeColor=#666666;" parent="1" vertex="1">
          <mxGeometry x="40" y="409" width="40" height="10" as="geometry" />
        </mxCell>
        <mxCell id="BAi89jd5EGfL0doamKMS-48" value="S" style="rounded=0;whiteSpace=wrap;html=1;fontSize=8;fillColor=#f5f5f5;fontColor=#333333;strokeColor=#666666;" parent="1" vertex="1">
          <mxGeometry x="80" y="409" width="40" height="10" as="geometry" />
        </mxCell>
        <mxCell id="BAi89jd5EGfL0doamKMS-49" value="Ž" style="rounded=0;whiteSpace=wrap;html=1;fontSize=8;fillColor=#f5f5f5;fontColor=#333333;strokeColor=#666666;" parent="1" vertex="1">
          <mxGeometry x="120" y="409" width="40" height="10" as="geometry" />
        </mxCell>
        <mxCell id="BAi89jd5EGfL0doamKMS-50" value="-a&lt;br&gt;-o" style="rounded=0;whiteSpace=wrap;html=1;strokeColor=#666666;" parent="1" vertex="1">
          <mxGeometry x="120" y="419" width="40" height="30" as="geometry" />
        </mxCell>
        <mxCell id="BAi89jd5EGfL0doamKMS-51" value="-i&lt;br&gt;-e -u" style="rounded=0;whiteSpace=wrap;html=1;strokeColor=#666666;" parent="1" vertex="1">
          <mxGeometry x="40" y="419" width="40" height="30" as="geometry" />
        </mxCell>
        <mxCell id="BAi89jd5EGfL0doamKMS-59" value="-ove&lt;br&gt;-eve" style="rounded=0;whiteSpace=wrap;html=1;" parent="1" vertex="1">
          <mxGeometry x="400" y="190" width="40" height="30" as="geometry" />
        </mxCell>
        <mxCell id="BAi89jd5EGfL0doamKMS-61" value="-ova&lt;br&gt;-eva" style="rounded=0;whiteSpace=wrap;html=1;" parent="1" vertex="1">
          <mxGeometry x="400" y="270" width="40" height="30" as="geometry" />
        </mxCell>
        <mxCell id="BAi89jd5EGfL0doamKMS-64" value="-i" style="rounded=0;whiteSpace=wrap;html=1;fillColor=#fff2cc;strokeColor=#d6b656;" parent="1" vertex="1">
          <mxGeometry x="40" y="449" width="40" height="30" as="geometry" />
        </mxCell>
        <mxCell id="BAi89jd5EGfL0doamKMS-65" value="-a" style="rounded=0;whiteSpace=wrap;html=1;fillColor=#fff2cc;strokeColor=#d6b656;" parent="1" vertex="1">
          <mxGeometry x="80" y="449" width="40" height="30" as="geometry" />
        </mxCell>
        <mxCell id="BAi89jd5EGfL0doamKMS-66" value="-e" style="rounded=0;whiteSpace=wrap;html=1;fillColor=#fff2cc;strokeColor=#d6b656;" parent="1" vertex="1">
          <mxGeometry x="120" y="449" width="40" height="30" as="geometry" />
        </mxCell>
        <mxCell id="BAi89jd5EGfL0doamKMS-67" value="-o -e" style="rounded=0;whiteSpace=wrap;html=1;fillColor=#fff2cc;strokeColor=#d6b656;" parent="1" vertex="1">
          <mxGeometry x="80" y="419" width="40" height="30" as="geometry" />
        </mxCell>
        <mxCell id="BAi89jd5EGfL0doamKMS-62" value="-ovima&lt;br&gt;-evima" style="rounded=0;whiteSpace=wrap;html=1;fillColor=#d5e8d4;strokeColor=#82b366;" parent="1" vertex="1">
          <mxGeometry x="400" y="500" width="40" height="30" as="geometry" />
        </mxCell>
        <mxCell id="BAi89jd5EGfL0doamKMS-63" value="-ovima&lt;br&gt;-evima" style="rounded=0;whiteSpace=wrap;html=1;fillColor=#d5e8d4;strokeColor=#82b366;" parent="1" vertex="1">
          <mxGeometry x="400" y="610" width="40" height="30" as="geometry" />
        </mxCell>
        <mxCell id="BAi89jd5EGfL0doamKMS-68" value="-ovima&lt;br&gt;-evima" style="rounded=0;whiteSpace=wrap;html=1;fillColor=#d5e8d4;strokeColor=#82b366;" parent="1" vertex="1">
          <mxGeometry x="400" y="720" width="40" height="30" as="geometry" />
        </mxCell>
        <mxCell id="BAi89jd5EGfL0doamKMS-69" value="-ovi&lt;br&gt;-evi" style="rounded=0;whiteSpace=wrap;html=1;fillColor=#fff2cc;strokeColor=#d6b656;" parent="1" vertex="1">
          <mxGeometry x="400" y="389" width="40" height="30" as="geometry" />
        </mxCell>
        <mxCell id="BAi89jd5EGfL0doamKMS-92" value="-k&amp;nbsp;➜ -ci -g&amp;nbsp;&lt;font style=&quot;font-size: 10px;&quot;&gt;➜&lt;/font&gt; -zi -h&amp;nbsp;➜ si&lt;br style=&quot;font-size: 10px;&quot;&gt;jezik ➜ jezici&lt;br&gt;izuzetak ➜ izuzeci" style="rounded=0;whiteSpace=wrap;html=1;align=left;fontSize=10;" parent="1" vertex="1">
          <mxGeometry x="180" y="80" width="120" height="70" as="geometry" />
        </mxCell>
        <mxCell id="BAi89jd5EGfL0doamKMS-99" value="-k&amp;nbsp;➜ -če -g&amp;nbsp;➜ -že -h&amp;nbsp;➜ še&lt;br&gt;junače, Bože, duše" style="rounded=0;whiteSpace=wrap;html=1;align=left;fontSize=10;" parent="1" vertex="1">
          <mxGeometry x="180" y="410" width="120" height="34" as="geometry" />
        </mxCell>
        <mxCell id="BAi89jd5EGfL0doamKMS-100" value="-k&amp;nbsp;➜ -ci -g&amp;nbsp;➜ -zi -h&amp;nbsp;➜ si&lt;br style=&quot;font-size: 10px;&quot;&gt;" style="rounded=0;whiteSpace=wrap;html=1;align=left;fontSize=10;" parent="1" vertex="1">
          <mxGeometry x="180" y="444" width="120" height="35" as="geometry" />
        </mxCell>
        <mxCell id="BAi89jd5EGfL0doamKMS-103" value="Ženski Jednina" style="rounded=0;whiteSpace=wrap;html=1;" parent="1" vertex="1">
          <mxGeometry x="180" y="500" width="120" height="20" as="geometry" />
        </mxCell>
        <mxCell id="BAi89jd5EGfL0doamKMS-104" value="-ka ➜ -ci -ga ➜ -zi &lt;br&gt;-ha ➜ si&lt;br&gt;&lt;br&gt;Americi, knizi, eposi" style="rounded=0;whiteSpace=wrap;html=1;align=left;fontSize=10;" parent="1" vertex="1">
          <mxGeometry x="180" y="520" width="120" height="60" as="geometry" />
        </mxCell>
        <mxCell id="BAi89jd5EGfL0doamKMS-105" value="Muški Množina" style="rounded=0;whiteSpace=wrap;html=1;" parent="1" vertex="1">
          <mxGeometry x="180" y="675" width="120" height="20" as="geometry" />
        </mxCell>
        <mxCell id="BAi89jd5EGfL0doamKMS-106" value="-k ➜ -cima &lt;br&gt;-g ➜ -zima &lt;br&gt;-h ➜ sima&lt;br&gt;&lt;br&gt;radnic ➜ radnicima&lt;br&gt;psiholog ➜ psiholozima&lt;br&gt;tepeh ➜ tepisima" style="rounded=0;whiteSpace=wrap;html=1;align=left;fontSize=10;" parent="1" vertex="1">
          <mxGeometry x="180" y="695" width="120" height="115" as="geometry" />
        </mxCell>
        <mxCell id="BAi89jd5EGfL0doamKMS-111" value="Zemlje" style="rounded=0;whiteSpace=wrap;html=1;" parent="1" vertex="1">
          <mxGeometry x="180" y="590" width="120" height="20" as="geometry" />
        </mxCell>
        <mxCell id="BAi89jd5EGfL0doamKMS-112" value="-ska -ška -čka&lt;br&gt;Poljska ➜ Poljskoj" style="rounded=0;whiteSpace=wrap;html=1;align=left;fontSize=10;" parent="1" vertex="1">
          <mxGeometry x="180" y="610" width="120" height="50" as="geometry" />
        </mxCell>
        <mxCell id="fJoO8VDyXokNPLIYZir3-2" value="Genetiv Množina" style="rounded=0;whiteSpace=wrap;html=1;" parent="1" vertex="1">
          <mxGeometry x="180" y="170" width="120" height="20" as="geometry" />
        </mxCell>
        <mxCell id="fJoO8VDyXokNPLIYZir3-3" value="&lt;p style=&quot;line-height: 110%;&quot;&gt;&lt;b&gt;Dodatna&amp;nbsp;A između suglasnika na kraju:&amp;nbsp;&lt;br&gt;&lt;/b&gt;&lt;span style=&quot;background-color: initial;&quot;&gt;sestra ➜ sest&lt;/span&gt;&lt;b style=&quot;background-color: initial;&quot;&gt;a&lt;/b&gt;&lt;span style=&quot;background-color: initial;&quot;&gt;ra&amp;nbsp;&lt;br&gt;&lt;/span&gt;&lt;span style=&quot;background-color: initial;&quot;&gt;student ➜ studen&lt;/span&gt;&lt;b style=&quot;background-color: initial;&quot;&gt;a&lt;/b&gt;&lt;span style=&quot;background-color: initial;&quot;&gt;ta&lt;br&gt;&lt;/span&gt;&lt;span style=&quot;background-color: initial;&quot;&gt;pismo ➜ pis&lt;/span&gt;&lt;b style=&quot;background-color: initial;&quot;&gt;a&lt;/b&gt;&lt;span style=&quot;background-color: initial;&quot;&gt;ma&lt;/span&gt;&lt;/p&gt;" style="rounded=0;whiteSpace=wrap;html=1;align=left;fontSize=10;" parent="1" vertex="1">
          <mxGeometry x="180" y="190" width="120" height="70" as="geometry" />
        </mxCell>
        <mxCell id="w5lrp8CAif_9VlZ4OXMN-1" value="PADEŽI" style="shape=offPageConnector;whiteSpace=wrap;html=1;size=0.25;fontStyle=1;fontSize=20;fillColor=#000000;strokeColor=#000000;fontColor=#FFFFFF;" parent="1" vertex="1">
          <mxGeometry x="40" y="10" width="120" height="40" as="geometry" />
        </mxCell>
        <mxCell id="w5lrp8CAif_9VlZ4OXMN-2" value="PROMENE" style="shape=offPageConnector;whiteSpace=wrap;html=1;size=0.25;fontStyle=1" parent="1" vertex="1">
          <mxGeometry x="180" y="10" width="120" height="40" as="geometry" />
        </mxCell>
        <mxCell id="w5lrp8CAif_9VlZ4OXMN-3" value="Muški jednosložni množina" style="shape=offPageConnector;whiteSpace=wrap;html=1;size=0.25;fontStyle=1" parent="1" vertex="1">
          <mxGeometry x="320" y="10" width="120" height="40" as="geometry" />
        </mxCell>
        <mxCell id="w5lrp8CAif_9VlZ4OXMN-9" value="NOMINATIV" style="rounded=0;whiteSpace=wrap;html=1;" parent="1" vertex="1">
          <mxGeometry x="320" y="60" width="80" height="30" as="geometry" />
        </mxCell>
        <mxCell id="BAi89jd5EGfL0doamKMS-58" value="-ovi&lt;br&gt;-evi" style="rounded=0;whiteSpace=wrap;html=1;fillColor=#fff2cc;strokeColor=#d6b656;" parent="1" vertex="1">
          <mxGeometry x="400" y="60" width="40" height="30" as="geometry" />
        </mxCell>
        <mxCell id="w5lrp8CAif_9VlZ4OXMN-10" value="&lt;b&gt;Izuzeci: &lt;/b&gt;put ➜ putevi&lt;br&gt;sir ➜ sirevi&amp;nbsp; dan ➜ dani&lt;br&gt;konj ➜ konji mrav ➜ mravi&lt;br&gt;zub ➜ zubi&amp;nbsp; sat ➜ sati &lt;br&gt;pas ➜ psi" style="rounded=0;whiteSpace=wrap;html=1;align=left;fontSize=10;" parent="1" vertex="1">
          <mxGeometry x="320" y="120" width="120" height="60" as="geometry" />
        </mxCell>
        <mxCell id="Pf-PKDTKtpDQkGUhiAqp-1" value="&lt;b&gt;Izuzeci:&amp;nbsp; &lt;/b&gt;čovek&lt;b&gt;&amp;nbsp;&lt;/b&gt;➜ ljudi&lt;br&gt;lampa ➜ lampi&lt;br&gt;mesec ➜ meseci&lt;br&gt;sat ➜ sati gost&amp;nbsp;➜ gostiju&lt;br&gt;oko ➜ očiju prst ➜ prstiju&lt;br&gt;uho (uvo) ➜ ušiju&lt;br&gt;nokat ➜ noktiju&lt;br&gt;ruka ➜ ruku noga ➜ nogu&lt;br&gt;sluga ➜ slugu" style="rounded=0;whiteSpace=wrap;html=1;align=left;fontSize=10;" parent="1" vertex="1">
          <mxGeometry x="180" y="260" width="120" height="110" as="geometry" />
        </mxCell>
        <mxCell id="Pf-PKDTKtpDQkGUhiAqp-2" value="NOMINATIV" style="rounded=0;whiteSpace=wrap;html=1;fontSize=10;horizontal=0;" parent="1" vertex="1">
          <mxGeometry x="460" y="60" width="20" height="60" as="geometry" />
        </mxCell>
        <mxCell id="Pf-PKDTKtpDQkGUhiAqp-3" value="AKUZATIV" style="rounded=0;whiteSpace=wrap;html=1;fontSize=10;horizontal=0;" parent="1" vertex="1">
          <mxGeometry x="460" y="130" width="20" height="100" as="geometry" />
        </mxCell>
        <mxCell id="Pf-PKDTKtpDQkGUhiAqp-4" value="GENETIV" style="rounded=0;whiteSpace=wrap;html=1;fontSize=10;horizontal=0;" parent="1" vertex="1">
          <mxGeometry x="460" y="240" width="20" height="150" as="geometry" />
        </mxCell>
        <mxCell id="Pf-PKDTKtpDQkGUhiAqp-5" value="VOKATIV" style="rounded=0;whiteSpace=wrap;html=1;fontSize=10;horizontal=0;" parent="1" vertex="1">
          <mxGeometry x="460" y="388" width="20" height="61" as="geometry" />
        </mxCell>
        <mxCell id="Pf-PKDTKtpDQkGUhiAqp-6" value="DATIV" style="rounded=0;whiteSpace=wrap;html=1;fontSize=10;horizontal=0;" parent="1" vertex="1">
          <mxGeometry x="460" y="455" width="20" height="140" as="geometry" />
        </mxCell>
        <mxCell id="Pf-PKDTKtpDQkGUhiAqp-7" value="LOCATIV" style="rounded=0;whiteSpace=wrap;html=1;fontSize=10;horizontal=0;" parent="1" vertex="1">
          <mxGeometry x="460" y="600" width="20" height="100" as="geometry" />
        </mxCell>
        <mxCell id="Pf-PKDTKtpDQkGUhiAqp-8" value="INSTRUMENTAL" style="rounded=0;whiteSpace=wrap;html=1;fontSize=10;horizontal=0;" parent="1" vertex="1">
          <mxGeometry x="460" y="705" width="20" height="120" as="geometry" />
        </mxCell>
        <mxCell id="Pf-PKDTKtpDQkGUhiAqp-14" value="&lt;font style=&quot;font-size: 11px;&quot;&gt;&lt;b style=&quot;border-color: var(--border-color);&quot;&gt;Pitanja - ko? šta?:&amp;nbsp;&lt;/b&gt;Ko je to? ➜ Ovo je moj brat. Šta je ovo? ➜ Ovo je moj domaći zadatak. &lt;br&gt;&lt;br&gt;&lt;/font&gt;&lt;font style=&quot;font-size: 11px;&quot;&gt;&lt;font style=&quot;font-size: 11px;&quot;&gt;● vršilac radnje / nosilac situacije ➜&amp;nbsp;&lt;b style=&quot;&quot;&gt;Miša&lt;/b&gt; uci matematiku. Miša je &lt;b style=&quot;&quot;&gt;student&lt;/b&gt;. &lt;b style=&quot;&quot;&gt;Naš&lt;/b&gt; Miša je &lt;b style=&quot;&quot;&gt;odličan&lt;/b&gt; student. Marko Kraljević, &lt;b style=&quot;&quot;&gt;poznata istorijska ličnost&lt;/b&gt;, opevan je u mnogim narodnim pesmama.&lt;/font&gt;&lt;br&gt;&lt;/font&gt;" style="rounded=0;whiteSpace=wrap;html=1;align=left;fontSize=10;" parent="1" vertex="1">
          <mxGeometry x="480" y="60" width="540" height="60" as="geometry" />
        </mxCell>
        <mxCell id="Pf-PKDTKtpDQkGUhiAqp-16" value="&lt;font style=&quot;font-size: 10px;&quot;&gt;&lt;b style=&quot;font-size: 10px;&quot;&gt;N&lt;/b&gt;&lt;span style=&quot;font-size: 10px; white-space: pre;&quot;&gt;&#x9;&lt;/span&gt;ljubav&lt;span style=&quot;font-size: 10px; white-space: pre;&quot;&gt;&#x9;&lt;/span&gt;ljubav&lt;b style=&quot;font-size: 10px;&quot;&gt;i&lt;/b&gt;&lt;br style=&quot;font-size: 10px;&quot;&gt;&lt;b style=&quot;font-size: 10px;&quot;&gt;G&lt;/b&gt;&lt;span style=&quot;font-size: 10px; white-space: pre;&quot;&gt;&#x9;&lt;/span&gt;ljubav&lt;b style=&quot;font-size: 10px;&quot;&gt;i&lt;/b&gt;&lt;span style=&quot;font-size: 10px; white-space: pre; font-weight: bold;&quot;&gt;&#x9;&lt;/span&gt;ljubav&lt;b style=&quot;font-size: 10px;&quot;&gt;i&lt;/b&gt;&lt;br style=&quot;font-size: 10px;&quot;&gt;&lt;b style=&quot;font-size: 10px;&quot;&gt;D&lt;/b&gt;&lt;span style=&quot;font-size: 10px; white-space: pre;&quot;&gt;&#x9;&lt;/span&gt;ljubav&lt;b style=&quot;font-size: 10px;&quot;&gt;i&lt;/b&gt;&lt;span style=&quot;font-size: 10px; white-space: pre; font-weight: bold;&quot;&gt;&#x9;&lt;/span&gt;&lt;font style=&quot;font-size: 10px;&quot;&gt;ljubav&lt;/font&gt;&lt;b style=&quot;font-size: 10px;&quot;&gt;ima&lt;/b&gt;&lt;br style=&quot;font-size: 10px;&quot;&gt;&lt;b style=&quot;font-size: 10px;&quot;&gt;A&lt;/b&gt;&lt;span style=&quot;font-size: 10px; white-space: pre;&quot;&gt;&#x9;&lt;/span&gt;ljubav&lt;span style=&quot;white-space: pre;&quot;&gt;&#x9;&lt;/span&gt;ljubav&lt;b&gt;i&lt;/b&gt;&lt;br style=&quot;font-size: 10px;&quot;&gt;&lt;b style=&quot;font-size: 10px;&quot;&gt;V&lt;/b&gt;&lt;span style=&quot;font-size: 10px; white-space: pre;&quot;&gt;&#x9;&lt;/span&gt;ljubav&lt;span style=&quot;font-size: 10px;&quot;&gt;&lt;b&gt;i&lt;/b&gt;&lt;span style=&quot;font-weight: bold; white-space: pre;&quot;&gt;&#x9;&lt;/span&gt;ljubav&lt;/span&gt;&lt;b style=&quot;font-size: 10px;&quot;&gt;i&lt;/b&gt;&lt;br style=&quot;font-size: 10px;&quot;&gt;&lt;b style=&quot;font-size: 10px;&quot;&gt;I&lt;/b&gt;&lt;span style=&quot;font-size: 10px; white-space: pre;&quot;&gt;&#x9;&lt;/span&gt;ljubav&lt;span style=&quot;font-size: 10px;&quot;&gt;&lt;b&gt;i&lt;/b&gt;&lt;span style=&quot;font-weight: bold; white-space: pre;&quot;&gt;&#x9;&lt;/span&gt;ljubav&lt;/span&gt;&lt;b style=&quot;font-size: 10px;&quot;&gt;ima&lt;/b&gt;&lt;br style=&quot;font-size: 10px;&quot;&gt;&lt;b style=&quot;font-size: 10px;&quot;&gt;L&lt;/b&gt;&lt;span style=&quot;font-size: 10px; white-space: pre;&quot;&gt;&#x9;&lt;/span&gt;ljubav&lt;span style=&quot;font-size: 10px;&quot;&gt;&lt;b&gt;i&lt;/b&gt;&lt;span style=&quot;font-weight: bold; white-space: pre;&quot;&gt;&#x9;&lt;/span&gt;ljubav&lt;/span&gt;&lt;b style=&quot;font-size: 10px;&quot;&gt;ima&lt;/b&gt;&lt;br style=&quot;font-size: 10px;&quot;&gt;&lt;/font&gt;" style="rounded=0;html=1;align=left;fontSize=10;fontFamily=Helvetica;spacing=2;" parent="1" vertex="1">
          <mxGeometry x="1040" y="30" width="120" height="100" as="geometry" />
        </mxCell>
        <mxCell id="Pf-PKDTKtpDQkGUhiAqp-18" value="Ljubav" style="rounded=0;whiteSpace=wrap;html=1;" parent="1" vertex="1">
          <mxGeometry x="1040" y="10" width="120" height="21" as="geometry" />
        </mxCell>
        <mxCell id="uh2jlfRQcC9aMAu_DCjH-1" value="&lt;font style=&quot;&quot;&gt;bolest, radost, novost, novost, noć, smrt, mladost, ponoc, stvar, reć, prošlost, krv&lt;br style=&quot;font-size: 12px;&quot;&gt;&lt;/font&gt;" style="rounded=0;html=1;align=left;fontSize=12;fontFamily=Helvetica;spacing=2;whiteSpace=wrap;" parent="1" vertex="1">
          <mxGeometry x="1040" y="130" width="120" height="80" as="geometry" />
        </mxCell>
        <mxCell id="uh2jlfRQcC9aMAu_DCjH-2" value="&lt;font style=&quot;font-size: 11px;&quot;&gt;&lt;b&gt;Pitanja - od koga? od čega?:&amp;nbsp; &lt;/b&gt;Koga se stidiš? ➜ Stidim se svoje porodice.&amp;nbsp;&lt;br&gt;&lt;b&gt;Predlozi -&lt;/b&gt; iz, s (sa), od, do, pored, kraj, kod, blizu, ispred, iza, između, pre, posle, nakon, uoči, usred, oko, izvan, prilikom, usled, radi, poput, mesto, protiv, osim/sem, uprkos, zbog&lt;/font&gt;&lt;div style=&quot;font-size: 11px;&quot;&gt;&lt;font style=&quot;font-size: 11px;&quot;&gt;&lt;br&gt;&lt;/font&gt;&lt;/div&gt;&lt;div style=&quot;font-size: 11px;&quot;&gt;&lt;font style=&quot;font-size: 11px;&quot;&gt;● posesivni G ➜ Ovo su knjige &lt;b&gt;moje sestre&lt;/b&gt;. &amp;nbsp; ● partitativni G ➜ Jeo sam &lt;b&gt;voća&lt;/b&gt;. Najeo sam se &lt;b&gt;voća&lt;/b&gt;. U korpi više nije bilo &lt;b&gt;voća&lt;/b&gt;. &amp;nbsp; &amp;nbsp;● kvalitativni G ➜ Došla je devojka &lt;b&gt;visokog rasta i crnih očiju&lt;/b&gt;. &amp;nbsp; &amp;nbsp;● temporalni G ➜ &lt;b&gt;Prošle nedelje&lt;/b&gt; nismo išli u školu. &amp;nbsp; &amp;nbsp;● slovenski G ➜ Nije rekao ni &lt;b&gt;reči&lt;/b&gt;. &amp;nbsp; &amp;nbsp;● ablativni G ➜ Sećao se &lt;b&gt;svog detinjstva&lt;/b&gt;. &amp;nbsp; &amp;nbsp;● vreme ➜ Sreo sam ga &lt;b&gt;uoči Prvog maja&lt;/b&gt; &amp;nbsp; &amp;nbsp;● mesto ➜ Kuća mu je &lt;b&gt;usred velike šume&lt;/b&gt;&amp;nbsp; &amp;nbsp; &amp;nbsp; &amp;nbsp; &amp;nbsp; &amp;nbsp; ● uzrok ➜ Nije mogao na studije &lt;b&gt;zbog siromaštva&lt;/b&gt; &amp;nbsp; &amp;nbsp;● način ➜ Hteo je da uđe &lt;b&gt;preko reda&lt;/b&gt; &amp;nbsp; &amp;nbsp;● cilj, namera ➜ &lt;b&gt;Radi školovanja dece&lt;/b&gt; prešao je u grad &amp;nbsp; &amp;nbsp;● ablativni genetiv ➜ Vlada je izašao &lt;b&gt;iz učionice&lt;/b&gt;. On mi je prijatelj &lt;b&gt;iz detinjstva&lt;/b&gt;&lt;/font&gt;&lt;/div&gt;" style="rounded=0;whiteSpace=wrap;html=1;align=left;fontSize=9;" parent="1" vertex="1">
          <mxGeometry x="480" y="240" width="540" height="150" as="geometry" />
        </mxCell>
        <mxCell id="uh2jlfRQcC9aMAu_DCjH-3" value="GENETIV" style="rounded=0;whiteSpace=wrap;html=1;" parent="1" vertex="1">
          <mxGeometry x="320" y="270" width="80" height="30" as="geometry" />
        </mxCell>
        <mxCell id="uh2jlfRQcC9aMAu_DCjH-4" value="Imena gradova su interesantna." style="rounded=0;whiteSpace=wrap;html=1;align=left;fontSize=10;" parent="1" vertex="1">
          <mxGeometry x="320" y="300" width="120" height="40" as="geometry" />
        </mxCell>
        <mxCell id="uh2jlfRQcC9aMAu_DCjH-5" value="AKUZATIV" style="rounded=0;whiteSpace=wrap;html=1;" parent="1" vertex="1">
          <mxGeometry x="320" y="190" width="80" height="30" as="geometry" />
        </mxCell>
        <mxCell id="ADTaTo-tk-Jg6WtzQs2E-1" value="&lt;b style=&quot;font-size: 9px;&quot;&gt;Primaoc radnje:&lt;/b&gt;&amp;nbsp;Dajem knjigu slonu. Šaljem poklon ženi. Odajem počast jezeru. Nedostaješ ženi. Donosim hranu slonu. Sviđaš se ženi. Dozvolite jezeru da bude čisto. Dugujem to Borku. Govorim ženi. Plati čoveku. Delim hranu ljudima. Uzimam novac ženi. Ostavljam ovo tebi. Pišem ovo njemu. Doniram ovo njoj. Šaljem ovo njima. Nudim ovo Milanu. Prodajem ovo slonu. Pozajmljujem ovo jezeru. Verujem ti (tebi). Narđujem sinu da dođe. &lt;b&gt;+ glagoli (prvo lice) &lt;/b&gt;kažem, obećavam,&amp;nbsp;savetujem, pomažem, pretim, prkosim, pripadam, ugađam, divim se, nadam se, približavam se, radujem se, udvaram se, izbegavam, zahvaljujem, pridružujem se, sviram&lt;br&gt;&lt;b&gt;Izuzetak: &lt;/b&gt;Idem kući&lt;br&gt;&lt;b&gt;Predlozi -&amp;nbsp;&lt;/b&gt;&lt;b style=&quot;border-color: var(--border-color);&quot;&gt;prema, ka, slično, shodno, suprotno, uinat&lt;/b&gt;&lt;b&gt;: &lt;/b&gt;Trči prema košarkaškom terenu. Idem prema autobuskoj stanici. Pogledaj ka velikom jezeru. Obukao je slično tom čoveku. Birajte shodno vašem uzrastu. Pobedio je, suprotno očekivanjima. Otvorio sam bar uinat mojim roditeljima.&lt;br&gt;&lt;b&gt;Sa gladolima trebati i sviđati se: &lt;/b&gt;Treba mi (Meni treda). Borku treba piće. Sestri treba odmor. Borku se sviđa čokolada. Komšiji se sviđa novi auto.&lt;div&gt;&lt;b style=&quot;border-color: var(--border-color);&quot;&gt;Pitanja - kome? čemu?: &lt;/b&gt;&lt;span style=&quot;border-color: var(--border-color);&quot;&gt;Komu duguješ izvinjenje? Čemu se nadaš? Prema čemu je teleskop uperen?&lt;/span&gt;&lt;br&gt;&lt;/div&gt;" style="rounded=0;whiteSpace=wrap;html=1;align=left;fontSize=9;" parent="1" vertex="1">
          <mxGeometry x="480" y="455" width="540" height="140" as="geometry" />
        </mxCell>
        <mxCell id="ADTaTo-tk-Jg6WtzQs2E-2" value="&lt;font style=&quot;font-size: 11px;&quot;&gt;&lt;font style=&quot;font-size: 11px;&quot; face=&quot;Helvetica&quot;&gt;&lt;font style=&quot;font-size: 11px;&quot;&gt;&lt;b style=&quot;border-color: var(--border-color);&quot;&gt;&lt;font style=&quot;font-size: 11px;&quot;&gt;Pitanja - koga? šta? koji?:&lt;/font&gt;&amp;nbsp;&lt;/b&gt;Koga voliš? ➜ Volim majku. Šta vidiš? ➜ Vidim knjigu.&amp;nbsp;&lt;br&gt;&lt;b style=&quot;&quot;&gt;Predlozi -&amp;nbsp;&lt;/b&gt;&lt;/font&gt;&lt;span style=&quot;font-size: 11px;&quot;&gt;na, u, o, po, uz, niz, kroz, nad, za, pod, pred, među&lt;/span&gt;&lt;br style=&quot;&quot;&gt;&lt;br&gt;&lt;font style=&quot;font-size: 11px;&quot;&gt;● predmet radnje&amp;nbsp;➜&amp;nbsp;Kupila sam &lt;b style=&quot;&quot;&gt;lepu knjigu&lt;/b&gt;. Milica se zaljubila &lt;b&gt;u Petra.&amp;nbsp; &amp;nbsp;&amp;nbsp;&lt;/b&gt;&lt;/font&gt;&lt;/font&gt;&lt;font style=&quot;font-size: 11px;&quot;&gt;&lt;font style=&quot;font-size: 11px;&quot; face=&quot;Helvetica&quot;&gt;●&amp;nbsp;&lt;font style=&quot;font-size: 11px;&quot;&gt;mera i količina&amp;nbsp;&lt;/font&gt;➜&amp;nbsp;&lt;font style=&quot;font-size: 11px;&quot;&gt;&lt;b&gt;Čitavu nedelju&lt;/b&gt; su putovali.&lt;span style=&quot;&quot;&gt;&lt;span style=&quot;&quot;&gt;&amp;nbsp; &amp;nbsp; &amp;nbsp;&lt;/span&gt;&lt;/span&gt;&lt;/font&gt;&lt;/font&gt;● vreme&lt;font style=&quot;border-color: var(--border-color); font-size: 11px;&quot;&gt;&amp;nbsp;&lt;/font&gt;➜ &lt;b style=&quot;&quot;&gt;Svako jutro &lt;/b&gt;vežba. &lt;b style=&quot;&quot;&gt;Pred zoru &lt;/b&gt;su legli da spavaju.&amp;nbsp; &amp;nbsp; &amp;nbsp;● nosilac stanja&lt;font style=&quot;border-color: var(--border-color); font-size: 11px;&quot;&gt;&amp;nbsp;&lt;/font&gt;➜ &lt;b style=&quot;&quot;&gt;Marka &lt;/b&gt;boli glava.&amp;nbsp; &amp;nbsp; &amp;nbsp;&lt;/font&gt;&lt;/font&gt;&lt;font style=&quot;font-size: 11px;&quot;&gt;&lt;font style=&quot;font-size: 11px;&quot;&gt;● mesto&lt;font style=&quot;border-color: var(--border-color); font-size: 11px;&quot;&gt;&amp;nbsp;&lt;/font&gt;➜ Došao sam&lt;b&gt; u učionicu.&amp;nbsp; &amp;nbsp;&amp;nbsp;&lt;/b&gt;&lt;/font&gt;● način&amp;nbsp;➜ Pričao mi je kroz plač šta se dogodilo.&lt;br&gt;● uzrok&amp;nbsp;➜ Kažnjen je &lt;b style=&quot;&quot;&gt;za nedolazak&lt;/b&gt; u školu.&amp;nbsp; &amp;nbsp; ● namena&lt;font style=&quot;border-color: var(--border-color); font-size: 11px;&quot;&gt;&amp;nbsp;&lt;/font&gt;➜ Imam poklon &lt;b style=&quot;&quot;&gt;za tebe&lt;/b&gt;&lt;/font&gt;&lt;span style=&quot;font-size: 10px;&quot;&gt;&lt;/span&gt;" style="rounded=0;whiteSpace=wrap;html=1;align=left;fontSize=10;" parent="1" vertex="1">
          <mxGeometry x="480" y="130" width="540" height="100" as="geometry" />
        </mxCell>
        <mxCell id="QT0mehLF4YGMC2CH4Aby-1" value="Sara baš ima talenta za sve sportove" style="rounded=0;whiteSpace=wrap;html=1;align=left;fontSize=10;" parent="1" vertex="1">
          <mxGeometry x="320" y="220" width="120" height="40" as="geometry" />
        </mxCell>
        <mxCell id="QT0mehLF4YGMC2CH4Aby-2" value="VOKATIV" style="rounded=0;whiteSpace=wrap;html=1;" parent="1" vertex="1">
          <mxGeometry x="320" y="389" width="80" height="30" as="geometry" />
        </mxCell>
        <mxCell id="QT0mehLF4YGMC2CH4Aby-4" value="DATIV" style="rounded=0;whiteSpace=wrap;html=1;" parent="1" vertex="1">
          <mxGeometry x="320" y="500" width="80" height="30" as="geometry" />
        </mxCell>
        <mxCell id="QT0mehLF4YGMC2CH4Aby-7" value="LOCATIV" style="rounded=0;whiteSpace=wrap;html=1;" parent="1" vertex="1">
          <mxGeometry x="320" y="610" width="80" height="30" as="geometry" />
        </mxCell>
        <mxCell id="QT0mehLF4YGMC2CH4Aby-8" value="INSTR." style="rounded=0;whiteSpace=wrap;html=1;" parent="1" vertex="1">
          <mxGeometry x="320" y="720" width="80" height="30" as="geometry" />
        </mxCell>
        <mxCell id="QT0mehLF4YGMC2CH4Aby-9" value="Ona uvek brine o svojim drugovima." style="rounded=0;whiteSpace=wrap;html=1;align=left;fontSize=10;" parent="1" vertex="1">
          <mxGeometry x="320" y="640" width="120" height="40" as="geometry" />
        </mxCell>
        <mxCell id="QT0mehLF4YGMC2CH4Aby-10" value="Hej, mladi čoveče! Hej, druže! Hej, duše! Hej, prijatelji! Hej, žene! Hej, sela!&lt;br&gt;&lt;b&gt;Imena -o: &lt;/b&gt;Majo, Saro, Jano, Leno, Ivo, Anđo, Ljiljo, Maro, Mašo, Zoko, Ceco, Miro, Goco, Miljo, Vido, Rado, Daro.&lt;br&gt;&lt;b style=&quot;border-color: var(--border-color);&quot;&gt;Imena (NOM): &lt;/b&gt;&lt;span style=&quot;border-color: var(--border-color);&quot;&gt;Ana, Anja, Sanja, Sonja, Sandra, Olja, Vesna, Vanja, Dunja, Višnja, Kaća, Lea, Branka, Ljerka, Zorka, Tara, Tina, Lepa, Dragana, Zorana, Jovana, Mirjana, Olivera, Tatjana, Ksenija, Jelena, Aleksandra, Sla&lt;/span&gt;đana, Milena, Goran, Bojana, Svetlana&lt;br&gt;&lt;b style=&quot;border-color: var(--border-color);&quot;&gt;Imena -ce: &lt;/b&gt;&lt;span style=&quot;border-color: var(--border-color);&quot;&gt;Jelice, Marice, Milice, Danice, Ljubice, Zorice, Sunčice, Radice, Verice, Olgice&lt;/span&gt;" style="rounded=0;whiteSpace=wrap;html=1;align=left;fontSize=9;" parent="1" vertex="1">
          <mxGeometry x="480" y="388" width="540" height="61" as="geometry" />
        </mxCell>
        <mxCell id="QT0mehLF4YGMC2CH4Aby-11" value="&lt;b&gt;Instrument: &lt;/b&gt;Ana je častila Marka ručkom. Tresem košnicu štapom. Ana maše rukom. Kolutaš očima. Lutam ilicama. Ja ću rukovati mašinom. Snabdevam nas alkoholom. Škripi stolicom i nervira nastavnika. Upravljam restoranom. Hvalim se uspehom svog sina. Impressioniran sam tvojim dostignućem! Pokrio je krevet ćebetom. Posluži se kolačićima. Ona dobro vlada engleskim. Častim ga pićem. Oni putuju avijonom. Dolazi kolima. Možeš da isečes to nožem. Hodamo satima. Radim na ovom projektu danima. Jedem viljuškom. Slikao sam te telefnom. Došao sam biciklom.&lt;div&gt;&lt;b style=&quot;border-color: var(--border-color);&quot;&gt;Predlozi - sa, s: &lt;/b&gt;Posvađala se sa drugaricom. Ne slaže se sa sestrom. Putujem sa psom. Pričamo sa novim directorom. Zadivljen sam tvojim uspehom. Žaslužio si to svojim trudom.&lt;br&gt;&lt;b style=&quot;border-color: var(--border-color);&quot;&gt;Predlozi - za, među, nad, pod, pred&lt;/b&gt;&lt;b style=&quot;border-color: var(--border-color);&quot;&gt;: &lt;/b&gt;Sedimo za stolom. Ona plače za tobom. Pas trči za mojom ženom. Tugujem za rodnim gradom. Krije se među drvećem.&lt;br&gt;&lt;b&gt;Pitanja - sa kim? sa kime? sa čim? sa čime?:&lt;/b&gt; Sa kim ideš?&amp;nbsp;➜ Idem sa Markom. Sa čime ti dosađuje?&amp;nbsp;➜ Dosađuje mi domaćim zadatkom&lt;/div&gt;" style="rounded=0;whiteSpace=wrap;html=1;align=left;fontSize=9;" parent="1" vertex="1">
          <mxGeometry x="480" y="705" width="540" height="120" as="geometry" />
        </mxCell>
        <mxCell id="lDTSiUvkGt28ZzL0C-TC-1" value="PRIMERI" style="shape=offPageConnector;whiteSpace=wrap;html=1;size=0.25;fontStyle=1" parent="1" vertex="1">
          <mxGeometry x="460" y="10" width="120" height="40" as="geometry" />
        </mxCell>
        <mxCell id="SCsuLVYZ3zaB3UgAQBAb-1" value="&lt;b style=&quot;font-size: 9px;&quot;&gt;Locacija (predloazi u, na): &lt;/b&gt;&lt;span style=&quot;font-size: 9px;&quot;&gt;Radim u prodavnici. Ja sam u skoli. Živim u grad.&lt;br&gt;&lt;/span&gt;&lt;b style=&quot;font-size: 9px;&quot;&gt;Gonorim o nekomu, o nečemu: &lt;/b&gt;Pričim o srpskom jeziku. Ne radi se o mojoj porodici. Pričam joj o žurci. Da li žnaš nešto o tom dečku?&lt;br&gt;&lt;b style=&quot;font-size: 9px;&quot;&gt;Predlozi - prema, pri, po: &lt;/b&gt;Stani tamo, premo mostu. Oni su okrenuli prema severu. Imaš sladoled po majici. Ima puno pasa po kraju. Dosadilo mi je pri kraju. Naočare su pri dnu ranca.&lt;br&gt;&lt;b style=&quot;font-size: 9px;&quot;&gt;Pitanja - gde? o kome? o čemu?: &lt;/b&gt;Gde si? ➜ Ja sam u Beogradu. O kome pričaš?&amp;nbsp;➜ Pricham o sestri. O čemu pišeš?&amp;nbsp;➜ Pišem o jezeru." style="rounded=0;whiteSpace=wrap;html=1;align=left;fontSize=9;" parent="1" vertex="1">
          <mxGeometry x="480" y="600" width="540" height="100" as="geometry" />
        </mxCell>
        <mxCell id="k5CSX4Lu9ogysojjoo4v-1" value="Brat" style="rounded=0;whiteSpace=wrap;html=1;" parent="1" vertex="1">
          <mxGeometry x="1040" y="219" width="120" height="21" as="geometry" />
        </mxCell>
        <mxCell id="k5CSX4Lu9ogysojjoo4v-2" value="&lt;font style=&quot;font-size: 10px;&quot;&gt;&lt;b style=&quot;font-size: 10px;&quot;&gt;N&lt;/b&gt;&lt;span style=&quot;font-size: 10px; white-space: pre;&quot;&gt;&#x9;&lt;/span&gt;brat&lt;span style=&quot;font-size: 10px; white-space: pre;&quot;&gt;&#x9;&lt;span style=&quot;white-space: pre;&quot;&gt;&#x9;&lt;/span&gt;b&lt;/span&gt;raća&lt;br style=&quot;font-size: 10px;&quot;&gt;&lt;b style=&quot;font-size: 10px;&quot;&gt;G&lt;/b&gt;&lt;span style=&quot;font-size: 10px; white-space: pre;&quot;&gt;&#x9;&lt;/span&gt;brata&lt;span style=&quot;font-size: 10px; white-space: pre; font-weight: bold;&quot;&gt;&#x9;&lt;/span&gt;braće&lt;br style=&quot;font-size: 10px;&quot;&gt;&lt;b style=&quot;font-size: 10px;&quot;&gt;D&lt;/b&gt;&lt;span style=&quot;font-size: 10px; white-space: pre;&quot;&gt;&#x9;&lt;/span&gt;bratu&lt;span style=&quot;font-size: 10px; white-space: pre; font-weight: bold;&quot;&gt;&#x9;&lt;/span&gt;braći&lt;br style=&quot;font-size: 10px;&quot;&gt;&lt;b style=&quot;font-size: 10px;&quot;&gt;A&lt;/b&gt;&lt;span style=&quot;font-size: 10px; white-space: pre;&quot;&gt;&#x9;&lt;/span&gt;brata&lt;span style=&quot;white-space: pre;&quot;&gt;&#x9;&lt;/span&gt;braću&lt;br style=&quot;font-size: 10px;&quot;&gt;&lt;span style=&quot;font-size: 10px;&quot;&gt;&lt;b&gt;V&lt;/b&gt;&lt;span style=&quot;font-weight: bold; white-space: pre;&quot;&gt;&#x9;&lt;/span&gt;brate&lt;/span&gt;&lt;span style=&quot;font-size: 10px;&quot;&gt;&lt;span style=&quot;font-weight: bold; white-space: pre;&quot;&gt;&#x9;&lt;/span&gt;braćo&lt;/span&gt;&lt;br style=&quot;font-size: 10px;&quot;&gt;&lt;span style=&quot;font-size: 10px;&quot;&gt;&lt;b&gt;I&lt;/b&gt;&lt;span style=&quot;font-weight: bold; white-space: pre;&quot;&gt;&#x9;&lt;/span&gt;bratom&lt;/span&gt;&lt;span style=&quot;font-size: 10px;&quot;&gt;&lt;b&gt;&amp;nbsp;&lt;/b&gt;&lt;span style=&quot;font-weight: bold; white-space: pre;&quot;&gt;&#x9;&lt;/span&gt;braćom&lt;/span&gt;&lt;br style=&quot;font-size: 10px;&quot;&gt;&lt;b style=&quot;font-size: 10px;&quot;&gt;L&lt;/b&gt;&lt;span style=&quot;font-size: 10px; white-space: pre;&quot;&gt;&#x9;&lt;/span&gt;bratu&lt;span style=&quot;font-size: 10px;&quot;&gt;&lt;span style=&quot;font-weight: bold; white-space: pre;&quot;&gt;&#x9;&lt;/span&gt;braći&lt;/span&gt;&lt;br style=&quot;font-size: 10px;&quot;&gt;&lt;/font&gt;" style="rounded=0;html=1;align=left;fontSize=10;fontFamily=Helvetica;spacing=2;" parent="1" vertex="1">
          <mxGeometry x="1040" y="240" width="120" height="100" as="geometry" />
        </mxCell>
        <mxCell id="k5CSX4Lu9ogysojjoo4v-3" value="Dete" style="rounded=0;whiteSpace=wrap;html=1;" parent="1" vertex="1">
          <mxGeometry x="1040" y="350" width="120" height="21" as="geometry" />
        </mxCell>
        <mxCell id="k5CSX4Lu9ogysojjoo4v-4" value="&lt;font style=&quot;font-size: 10px;&quot;&gt;&lt;b style=&quot;font-size: 10px;&quot;&gt;N&lt;/b&gt;&lt;span style=&quot;font-size: 10px; white-space: pre;&quot;&gt;&#x9;&lt;/span&gt;dete&lt;span style=&quot;font-size: 10px; white-space: pre;&quot;&gt;&#x9;&lt;span style=&quot;white-space: pre;&quot;&gt;&#x9;&lt;/span&gt;d&lt;/span&gt;eca&lt;br style=&quot;font-size: 10px;&quot;&gt;&lt;b style=&quot;font-size: 10px;&quot;&gt;G&lt;/b&gt;&lt;span style=&quot;font-size: 10px; white-space: pre;&quot;&gt;&#x9;&lt;/span&gt;deteta&lt;span style=&quot;font-size: 10px; white-space: pre; font-weight: bold;&quot;&gt;&#x9;&lt;/span&gt;dece&lt;br style=&quot;font-size: 10px;&quot;&gt;&lt;b style=&quot;font-size: 10px;&quot;&gt;D&lt;/b&gt;&lt;span style=&quot;font-size: 10px; white-space: pre;&quot;&gt;&#x9;&lt;/span&gt;detetu&lt;span style=&quot;font-size: 10px; white-space: pre; font-weight: bold;&quot;&gt;&#x9;&lt;/span&gt;deci&lt;br style=&quot;font-size: 10px;&quot;&gt;&lt;b style=&quot;font-size: 10px;&quot;&gt;A&lt;/b&gt;&lt;span style=&quot;font-size: 10px; white-space: pre;&quot;&gt;&#x9;&lt;/span&gt;dete&lt;span style=&quot;white-space: pre;&quot;&gt;&#x9;&lt;/span&gt;&lt;span style=&quot;white-space: pre;&quot;&gt;&#x9;&lt;/span&gt;decu&lt;br style=&quot;font-size: 10px;&quot;&gt;&lt;span style=&quot;font-size: 10px;&quot;&gt;&lt;b&gt;V&lt;/b&gt;&lt;span style=&quot;font-weight: bold; white-space: pre;&quot;&gt;&#x9;&lt;/span&gt;dete&lt;span style=&quot;white-space: pre;&quot;&gt;&#x9;&lt;/span&gt;&lt;/span&gt;&lt;span style=&quot;font-size: 10px;&quot;&gt;&lt;span style=&quot;font-weight: bold; white-space: pre;&quot;&gt;&#x9;&lt;/span&gt;deco&lt;/span&gt;&lt;br style=&quot;font-size: 10px;&quot;&gt;&lt;span style=&quot;font-size: 10px;&quot;&gt;&lt;b&gt;I&lt;/b&gt;&lt;span style=&quot;font-weight: bold; white-space: pre;&quot;&gt;&#x9;&lt;/span&gt;detetom&lt;/span&gt;&lt;span style=&quot;font-size: 10px;&quot;&gt;&lt;b&gt;&amp;nbsp;&lt;/b&gt;&lt;span style=&quot;font-weight: bold; white-space: pre;&quot;&gt;&#x9;&lt;/span&gt;decom&lt;/span&gt;&lt;br style=&quot;font-size: 10px;&quot;&gt;&lt;b style=&quot;font-size: 10px;&quot;&gt;L&lt;/b&gt;&lt;span style=&quot;font-size: 10px; white-space: pre;&quot;&gt;&#x9;&lt;/span&gt;detetu&lt;span style=&quot;font-size: 10px;&quot;&gt;&lt;span style=&quot;font-weight: bold; white-space: pre;&quot;&gt;&#x9;&lt;/span&gt;deci&lt;/span&gt;&lt;br style=&quot;font-size: 10px;&quot;&gt;&lt;/font&gt;" style="rounded=0;html=1;align=left;fontSize=10;fontFamily=Helvetica;spacing=2;" parent="1" vertex="1">
          <mxGeometry x="1040" y="371" width="120" height="100" as="geometry" />
        </mxCell>
        <mxCell id="k5CSX4Lu9ogysojjoo4v-5" value="&lt;font style=&quot;&quot;&gt;dugme, bure, štene, mače&lt;br style=&quot;font-size: 12px;&quot;&gt;&lt;/font&gt;" style="rounded=0;html=1;align=left;fontSize=12;fontFamily=Helvetica;spacing=2;whiteSpace=wrap;" parent="1" vertex="1">
          <mxGeometry x="1040" y="770" width="120" height="40" as="geometry" />
        </mxCell>
        <mxCell id="k5CSX4Lu9ogysojjoo4v-6" value="Ime" style="rounded=0;whiteSpace=wrap;html=1;" parent="1" vertex="1">
          <mxGeometry x="1040" y="479" width="120" height="21" as="geometry" />
        </mxCell>
        <mxCell id="k5CSX4Lu9ogysojjoo4v-7" value="&lt;font style=&quot;font-size: 10px;&quot;&gt;&lt;b style=&quot;font-size: 10px;&quot;&gt;N&lt;/b&gt;&lt;span style=&quot;font-size: 10px; white-space: pre;&quot;&gt;&#x9;&lt;/span&gt;ime&lt;span style=&quot;font-size: 10px; white-space: pre;&quot;&gt;&#x9;&lt;span style=&quot;white-space: pre;&quot;&gt;&#x9;&lt;/span&gt;i&lt;/span&gt;mena&lt;br style=&quot;font-size: 10px;&quot;&gt;&lt;b style=&quot;font-size: 10px;&quot;&gt;G&lt;/b&gt;&lt;span style=&quot;font-size: 10px; white-space: pre;&quot;&gt;&#x9;&lt;/span&gt;imena&lt;span style=&quot;font-size: 10px; white-space: pre; font-weight: bold;&quot;&gt;&#x9;&lt;/span&gt;imena&lt;br style=&quot;font-size: 10px;&quot;&gt;&lt;b style=&quot;font-size: 10px;&quot;&gt;D&lt;/b&gt;&lt;span style=&quot;font-size: 10px; white-space: pre;&quot;&gt;&#x9;&lt;/span&gt;imenu&lt;span style=&quot;font-size: 10px; white-space: pre; font-weight: bold;&quot;&gt;&#x9;&lt;/span&gt;imenima&lt;br style=&quot;font-size: 10px;&quot;&gt;&lt;b style=&quot;font-size: 10px;&quot;&gt;A&lt;/b&gt;&lt;span style=&quot;font-size: 10px; white-space: pre;&quot;&gt;&#x9;&lt;/span&gt;ime&lt;span style=&quot;white-space: pre;&quot;&gt;&#x9;&lt;/span&gt;&lt;span style=&quot;white-space: pre;&quot;&gt;&#x9;&lt;/span&gt;imena&lt;br style=&quot;font-size: 10px;&quot;&gt;&lt;span style=&quot;font-size: 10px;&quot;&gt;&lt;b&gt;V&lt;/b&gt;&lt;span style=&quot;font-weight: bold; white-space: pre;&quot;&gt;&#x9;&lt;/span&gt;ime&lt;span style=&quot;white-space: pre;&quot;&gt;&#x9;&lt;/span&gt;&lt;/span&gt;&lt;span style=&quot;font-size: 10px;&quot;&gt;&lt;span style=&quot;font-weight: bold; white-space: pre;&quot;&gt;&#x9;&lt;/span&gt;imena&lt;/span&gt;&lt;br style=&quot;font-size: 10px;&quot;&gt;&lt;span style=&quot;font-size: 10px;&quot;&gt;&lt;b&gt;I&lt;/b&gt;&lt;span style=&quot;font-weight: bold; white-space: pre;&quot;&gt;&#x9;&lt;/span&gt;imenom&lt;/span&gt;&lt;span style=&quot;font-size: 10px;&quot;&gt;&lt;b&gt;&amp;nbsp;&lt;/b&gt;&lt;span style=&quot;font-weight: bold; white-space: pre;&quot;&gt;&#x9;&lt;/span&gt;imenima&lt;/span&gt;&lt;br style=&quot;font-size: 10px;&quot;&gt;&lt;b style=&quot;font-size: 10px;&quot;&gt;L&lt;/b&gt;&lt;span style=&quot;font-size: 10px; white-space: pre;&quot;&gt;&#x9;&lt;/span&gt;imenu&lt;span style=&quot;font-size: 10px;&quot;&gt;&lt;span style=&quot;font-weight: bold; white-space: pre;&quot;&gt;&#x9;&lt;/span&gt;imenima&lt;/span&gt;&lt;br style=&quot;font-size: 10px;&quot;&gt;&lt;/font&gt;" style="rounded=0;html=1;align=left;fontSize=10;fontFamily=Helvetica;spacing=2;" parent="1" vertex="1">
          <mxGeometry x="1040" y="500" width="120" height="100" as="geometry" />
        </mxCell>
        <mxCell id="k5CSX4Lu9ogysojjoo4v-8" value="&lt;font style=&quot;&quot;&gt;prezime, vreme, rame&lt;br style=&quot;font-size: 12px;&quot;&gt;&lt;/font&gt;" style="rounded=0;html=1;align=left;fontSize=12;fontFamily=Helvetica;spacing=2;whiteSpace=wrap;" parent="1" vertex="1">
          <mxGeometry x="1040" y="600" width="120" height="40" as="geometry" />
        </mxCell>
        <mxCell id="k5CSX4Lu9ogysojjoo4v-10" value="&lt;font style=&quot;font-size: 10px;&quot;&gt;&lt;b style=&quot;font-size: 10px;&quot;&gt;N&lt;/b&gt;&lt;span style=&quot;font-size: 10px; white-space: pre;&quot;&gt;&#x9;&lt;/span&gt;ćebe&lt;span style=&quot;font-size: 10px; white-space: pre;&quot;&gt;&lt;span style=&quot;white-space: pre;&quot;&gt;&#x9;&lt;/span&gt;ćebad&lt;/span&gt;&lt;br style=&quot;font-size: 10px;&quot;&gt;&lt;b style=&quot;font-size: 10px;&quot;&gt;G&lt;/b&gt;&lt;span style=&quot;font-size: 10px; white-space: pre;&quot;&gt;&#x9;&lt;/span&gt;ćebeta&lt;span style=&quot;font-size: 10px; white-space: pre; font-weight: bold;&quot;&gt;&#x9;&lt;/span&gt;ćebadi&lt;br style=&quot;font-size: 10px;&quot;&gt;&lt;b style=&quot;font-size: 10px;&quot;&gt;D&lt;/b&gt;&lt;span style=&quot;font-size: 10px; white-space: pre;&quot;&gt;&#x9;&lt;/span&gt;ćebetu&lt;span style=&quot;font-size: 10px; white-space: pre; font-weight: bold;&quot;&gt;&#x9;&lt;/span&gt;ćebadi&lt;br style=&quot;font-size: 10px;&quot;&gt;&lt;b style=&quot;font-size: 10px;&quot;&gt;A&lt;/b&gt;&lt;span style=&quot;font-size: 10px; white-space: pre;&quot;&gt;&#x9;&lt;/span&gt;ćebe&lt;span style=&quot;white-space: pre;&quot;&gt;&#x9;&lt;/span&gt;ćebad&lt;br style=&quot;font-size: 10px;&quot;&gt;&lt;span style=&quot;font-size: 10px;&quot;&gt;&lt;b&gt;V&lt;/b&gt;&lt;span style=&quot;font-weight: bold; white-space: pre;&quot;&gt;&#x9;&lt;/span&gt;ćebe&lt;span style=&quot;white-space: pre;&quot;&gt;&#x9;&lt;/span&gt;ćebad&lt;/span&gt;&lt;br style=&quot;font-size: 10px;&quot;&gt;&lt;span style=&quot;font-size: 10px;&quot;&gt;&lt;b&gt;I&lt;/b&gt;&lt;span style=&quot;font-weight: bold; white-space: pre;&quot;&gt;&#x9;&lt;/span&gt;ćebetom&lt;/span&gt;&lt;span style=&quot;font-size: 10px;&quot;&gt;&lt;b&gt;&amp;nbsp;&lt;/b&gt;&lt;span style=&quot;font-weight: bold; white-space: pre;&quot;&gt;&#x9;&lt;/span&gt;ćebadi&lt;/span&gt;&lt;br style=&quot;font-size: 10px;&quot;&gt;&lt;b style=&quot;font-size: 10px;&quot;&gt;L&lt;/b&gt;&lt;span style=&quot;font-size: 10px; white-space: pre;&quot;&gt;&#x9;&lt;/span&gt;ćebetu&lt;span style=&quot;font-size: 10px;&quot;&gt;&lt;span style=&quot;font-weight: bold; white-space: pre;&quot;&gt;&#x9;&lt;/span&gt;ćebadi&lt;/span&gt;&lt;br style=&quot;font-size: 10px;&quot;&gt;&lt;/font&gt;" style="rounded=0;html=1;align=left;fontSize=10;fontFamily=Helvetica;spacing=2;" parent="1" vertex="1">
          <mxGeometry x="1040" y="670" width="120" height="100" as="geometry" />
        </mxCell>
        <mxCell id="k5CSX4Lu9ogysojjoo4v-13" value="Ćebe" style="rounded=0;whiteSpace=wrap;html=1;" parent="1" vertex="1">
          <mxGeometry x="1040" y="649" width="120" height="21" as="geometry" />
        </mxCell>
        <mxCell id="R1ojqt--zH14BER3qFAF-1" value="Doneli mnogo voća slonovima." style="rounded=0;whiteSpace=wrap;html=1;align=left;fontSize=10;" parent="1" vertex="1">
          <mxGeometry x="320" y="530" width="120" height="40" as="geometry" />
        </mxCell>
        <mxCell id="R1ojqt--zH14BER3qFAF-2" value="Pričao sam sa satovima na zidu o vremenu." style="rounded=0;whiteSpace=wrap;html=1;align=left;fontSize=10;" parent="1" vertex="1">
          <mxGeometry x="320" y="750" width="120" height="40" as="geometry" />
        </mxCell>
      </root>
    </mxGraphModel>
  </diagram>
</mxfile>
